<?xml version="1.0" encoding="UTF-8"?>
<svg xmlns="http://www.w3.org/2000/svg" xmlns:xlink="http://www.w3.org/1999/xlink" width="100px" height="44px" viewBox="0 0 101 44" version="1.1">
<g id="surface1">
<path style=" stroke:none;fill-rule:nonzero;fill:rgb(9.803922%,18.039216%,23.921569%);fill-opacity:1;" d="M 5.050781 6.410156 L 5.050781 7.425781 L 15.148438 7.425781 L 15.148438 12.148438 L 18.550781 12.148438 L 18.449219 8.839844 L 18.347656 5.566406 L 11.714844 5.464844 L 5.050781 5.398438 Z M 17.335938 7.492188 C 17.441406 7.929688 17.472656 8.636719 17.371094 9.113281 C 17.304688 9.582031 17.203125 10.15625 17.203125 10.394531 C 17.136719 11.304688 16.597656 10.425781 16.394531 9.210938 C 16.292969 8.503906 16.125 7.660156 15.992188 7.320312 C 15.824219 6.882812 15.925781 6.75 16.464844 6.75 C 16.898438 6.75 17.238281 7.019531 17.335938 7.492188 Z M 17.335938 7.492188 "/>
<path style=" stroke:none;fill-rule:nonzero;fill:rgb(9.803922%,18.039216%,23.921569%);fill-opacity:1;" d="M 22.894531 6.410156 L 22.894531 7.425781 L 27.605469 7.425781 C 31.882812 7.425781 32.320312 7.492188 32.320312 7.996094 C 32.320312 8.335938 32.488281 9.179688 32.691406 9.851562 L 33.027344 11.132812 L 34.910156 11.132812 C 36.5625 11.132812 36.730469 11.066406 36.527344 10.527344 C 36.226562 9.785156 35.855469 8.605469 35.382812 6.816406 L 34.980469 5.398438 L 22.894531 5.398438 Z M 33.9375 7.152344 C 34.171875 7.386719 34.339844 7.929688 34.339844 8.402344 C 34.339844 9.347656 34.003906 9.074219 33.398438 7.660156 C 32.992188 6.714844 33.230469 6.445312 33.9375 7.152344 Z M 33.9375 7.152344 "/>
<path style=" stroke:none;fill-rule:nonzero;fill:rgb(9.803922%,18.039216%,23.921569%);fill-opacity:1;" d="M 5.050781 15.117188 L 5.050781 16.367188 L 10.101562 18.792969 L 15.148438 21.191406 L 15.148438 26.65625 L 5.050781 26.65625 L 5.050781 27.667969 C 5.050781 28.378906 5.21875 28.679688 5.589844 28.679688 C 5.890625 28.679688 8.820312 30.300781 12.152344 32.289062 L 18.144531 35.867188 L 15.789062 37.25 L 13.398438 38.632812 L 15.65625 38.738281 C 17.945312 38.835938 17.945312 38.835938 21.515625 36.679688 C 33.363281 29.492188 34.777344 28.546875 34.304688 28.242188 C 34.035156 28.105469 31.914062 26.824219 29.558594 25.441406 L 25.25 22.910156 L 25.25 15.523438 L 27.773438 15.523438 C 30.066406 15.523438 30.300781 15.453125 30.300781 14.847656 C 30.300781 14.207031 30.066406 14.171875 24.238281 14.171875 C 18.414062 14.171875 18.179688 14.207031 18.179688 14.847656 C 18.179688 15.453125 18.414062 15.523438 20.738281 15.523438 L 23.296875 15.523438 L 23.195312 19.976562 L 23.0625 24.464844 L 26.53125 26.488281 C 29.695312 28.34375 30.5 29.019531 29.628906 29.019531 C 29.425781 29.019531 27.304688 30.230469 24.914062 31.71875 L 20.539062 34.417969 L 15.753906 31.617188 L 11.007812 28.847656 L 14.777344 28.75 L 18.515625 28.648438 L 18.515625 20.210938 L 14.410156 18.253906 C 12.121094 17.175781 9.15625 15.722656 7.777344 15.050781 C 6.429688 14.375 5.25 13.835938 5.183594 13.835938 C 5.117188 13.835938 5.050781 14.40625 5.050781 15.117188 Z M 17.136719 23.449219 C 17.101562 24.597656 17.171875 25.679688 17.269531 25.878906 C 17.574219 26.351562 16.664062 27.464844 16.195312 27.195312 C 15.925781 27.027344 15.925781 26.757812 16.195312 26.25 C 16.429688 25.8125 16.53125 24.5625 16.429688 23.046875 C 16.292969 20.953125 16.328125 20.652344 16.730469 20.988281 C 17.070312 21.257812 17.203125 22 17.136719 23.449219 Z M 31.984375 28.511719 C 31.984375 28.582031 31.679688 28.816406 31.308594 29.019531 C 30.703125 29.320312 30.636719 29.289062 30.636719 28.511719 C 30.636719 27.738281 30.703125 27.703125 31.308594 28.003906 C 31.679688 28.210938 31.984375 28.445312 31.984375 28.511719 Z M 10.4375 28.679688 C 10.4375 29.457031 9.867188 29.523438 9.023438 28.882812 C 8.148438 28.242188 8.28125 28.003906 9.425781 28.003906 C 10.199219 28.003906 10.4375 28.140625 10.4375 28.679688 Z M 19.695312 35.5625 C 20.097656 35.96875 20.097656 36.070312 19.660156 36.238281 C 18.886719 36.542969 18.851562 36.507812 18.851562 35.769531 C 18.851562 34.957031 19.054688 34.925781 19.695312 35.5625 Z M 19.695312 35.5625 "/>
<path style=" stroke:none;fill-rule:nonzero;fill:rgb(9.803922%,18.039216%,23.921569%);fill-opacity:1;" d="M 37.707031 14.507812 C 37.707031 15.082031 37.941406 15.183594 39.050781 15.183594 C 40.164062 15.183594 40.398438 15.082031 40.398438 14.507812 C 40.398438 13.9375 40.164062 13.835938 39.050781 13.835938 C 37.941406 13.835938 37.707031 13.9375 37.707031 14.507812 Z M 37.707031 14.507812 "/>
<path style=" stroke:none;fill-rule:nonzero;fill:rgb(9.803922%,18.039216%,23.921569%);fill-opacity:1;" d="M 58.378906 14.8125 C 57.03125 15.65625 56.792969 16.027344 57.03125 17.039062 C 57.335938 18.1875 58.578125 18.726562 62.082031 19.335938 C 65.347656 19.90625 66.019531 20.277344 65.449219 21.15625 C 64.707031 22.371094 61.878906 22.472656 58.851562 21.394531 C 57.875 21.054688 57.335938 21.023438 56.832031 21.289062 C 55.210938 22.167969 59.253906 23.382812 63.125 23.25 C 66.457031 23.082031 67.835938 22.335938 67.835938 20.71875 C 67.835938 19.46875 66.425781 18.660156 63.5625 18.1875 C 60.328125 17.679688 59.253906 17.277344 59.253906 16.5 C 59.253906 16.09375 59.625 15.691406 60.195312 15.488281 C 61.207031 15.082031 64.335938 15.320312 65.378906 15.894531 C 65.882812 16.164062 66.1875 16.128906 66.726562 15.65625 C 67.367188 15.050781 67.367188 15.015625 66.253906 14.644531 C 65.648438 14.40625 63.863281 14.207031 62.28125 14.207031 C 60.027344 14.171875 59.1875 14.308594 58.378906 14.8125 Z M 58.378906 14.8125 "/>
<path style=" stroke:none;fill-rule:nonzero;fill:rgb(9.803922%,18.039216%,23.921569%);fill-opacity:1;" d="M 70.699219 15.351562 C 70.699219 16.398438 70.597656 16.535156 69.859375 16.535156 C 69.320312 16.535156 69.015625 16.738281 69.015625 17.039062 C 69.015625 17.34375 69.320312 17.546875 69.859375 17.546875 C 70.667969 17.546875 70.699219 17.613281 70.699219 19.738281 C 70.699219 22.539062 71.371094 23.28125 73.863281 23.28125 C 75.953125 23.28125 76.523438 22.976562 75.984375 22.238281 C 75.714844 21.898438 75.34375 21.761719 74.90625 21.933594 C 73.425781 22.4375 73.058594 22 73.058594 19.671875 L 73.058594 17.476562 L 74.300781 17.613281 C 75.3125 17.679688 75.582031 17.582031 75.683594 17.105469 C 75.785156 16.632812 75.546875 16.535156 74.4375 16.535156 C 73.089844 16.535156 73.058594 16.5 73.058594 15.351562 C 73.058594 14.238281 72.992188 14.171875 71.878906 14.171875 C 70.765625 14.171875 70.699219 14.238281 70.699219 15.351562 Z M 72.382812 17.003906 C 72.382812 17.277344 72.25 17.582031 72.082031 17.714844 C 71.675781 17.949219 71.273438 17.308594 71.542969 16.871094 C 71.84375 16.367188 72.382812 16.464844 72.382812 17.003906 Z M 72.382812 17.003906 "/>
<path style=" stroke:none;fill-rule:nonzero;fill:rgb(9.803922%,18.039216%,23.921569%);fill-opacity:1;" d="M 34.140625 16.667969 C 33.53125 16.9375 32.960938 17.308594 32.859375 17.511719 C 32.453125 18.152344 31.882812 17.917969 32.085938 17.210938 C 32.21875 16.632812 32.085938 16.535156 31.210938 16.535156 L 30.132812 16.535156 L 30.066406 23.28125 L 32.320312 23.28125 L 32.320312 21.324219 C 32.320312 20.277344 32.453125 19.230469 32.589844 19.03125 C 32.960938 18.425781 34.207031 17.882812 35.148438 17.882812 C 35.855469 17.882812 36.023438 17.714844 36.023438 17.039062 C 36.023438 16.09375 35.652344 16.027344 34.140625 16.667969 Z M 34.140625 16.667969 "/>
<path style=" stroke:none;fill-rule:nonzero;fill:rgb(9.803922%,18.039216%,23.921569%);fill-opacity:1;" d="M 47.875 16.535156 C 47.234375 16.667969 46.5625 16.972656 46.359375 17.175781 C 45.855469 17.679688 45.449219 17.648438 45.449219 17.039062 C 45.449219 16.703125 45.113281 16.535156 44.441406 16.535156 L 43.429688 16.535156 L 43.429688 25.644531 L 45.789062 25.644531 L 45.789062 21.933594 L 46.898438 22.605469 C 47.570312 23.046875 48.582031 23.28125 49.589844 23.28125 C 55.75 23.28125 56.390625 17.242188 50.332031 16.433594 C 49.589844 16.332031 48.480469 16.367188 47.875 16.535156 Z M 50.972656 18.019531 C 53.023438 18.894531 52.855469 20.886719 50.601562 21.796875 C 49.324219 22.335938 47.839844 22.167969 46.5625 21.359375 C 45.550781 20.683594 45.347656 19.941406 45.953125 18.996094 C 46.898438 17.546875 48.953125 17.175781 50.972656 18.019531 Z M 50.972656 18.019531 "/>
<path style=" stroke:none;fill-rule:nonzero;fill:rgb(9.803922%,18.039216%,23.921569%);fill-opacity:1;" d="M 79.722656 16.601562 C 78.003906 16.972656 77.804688 17.210938 78.578125 17.847656 C 78.949219 18.152344 79.25 18.152344 79.757812 17.917969 C 80.597656 17.445312 83.664062 17.445312 84.535156 17.882812 C 84.875 18.085938 85.175781 18.523438 85.175781 18.863281 C 85.175781 19.4375 85.042969 19.46875 83.761719 19.164062 C 80.867188 18.523438 77.433594 19.671875 77.433594 21.289062 C 77.433594 22.945312 82.042969 23.957031 84.269531 22.777344 C 85.109375 22.335938 85.277344 22.335938 85.75 22.777344 C 86.386719 23.417969 88.207031 23.449219 88.207031 22.808594 C 88.207031 22.574219 87.96875 22.167969 87.703125 21.933594 C 87.363281 21.664062 87.199219 20.917969 87.199219 19.738281 C 87.199219 17.648438 86.691406 17.074219 84.503906 16.566406 C 82.71875 16.164062 81.878906 16.164062 79.722656 16.601562 Z M 84.132812 20.113281 C 86.222656 20.550781 84.605469 22.269531 82.148438 22.269531 C 80.765625 22.269531 79.386719 21.460938 79.65625 20.75 C 79.957031 20.007812 82.011719 19.707031 84.132812 20.113281 Z M 84.132812 20.113281 "/>
<path style=" stroke:none;fill-rule:nonzero;fill:rgb(9.803922%,18.039216%,23.921569%);fill-opacity:1;" d="M 94.164062 17.003906 C 92.683594 17.75 92.582031 17.75 92.582031 17.175781 C 92.582031 16.667969 92.347656 16.535156 91.503906 16.535156 L 90.394531 16.535156 L 90.394531 23.28125 L 92.582031 23.28125 L 92.582031 21.289062 C 92.582031 19.535156 92.683594 19.199219 93.457031 18.59375 C 93.964844 18.1875 94.839844 17.882812 95.480469 17.882812 C 96.488281 17.882812 96.621094 17.78125 96.621094 17.039062 C 96.621094 15.996094 96.152344 15.996094 94.164062 17.003906 Z M 94.164062 17.003906 "/>
<path style=" stroke:none;fill-rule:nonzero;fill:rgb(9.803922%,18.039216%,23.921569%);fill-opacity:1;" d="M 38.042969 19.367188 C 38.042969 20.917969 37.941406 22.472656 37.839844 22.777344 C 37.640625 23.25 37.808594 23.316406 38.851562 23.214844 L 40.097656 23.113281 L 40.164062 19.808594 L 40.265625 16.535156 L 38.042969 16.535156 Z M 38.042969 19.367188 "/>
</g>
</svg>
