<?xml version="1.0" encoding="UTF-8"?>
<svg xmlns="http://www.w3.org/2000/svg" xmlns:xlink="http://www.w3.org/1999/xlink" width="200px" height="87px" viewBox="0 0 200 87" version="1.1">
<g id="surface1">
<path style=" stroke:none;fill-rule:nonzero;fill:rgb(9.803922%,18.039216%,23.921569%);fill-opacity:1;" d="M 10 12.675781 L 10 14.679688 L 30 14.679688 L 30 24.019531 L 36.734375 24.019531 L 36.535156 17.480469 L 36.332031 11.007812 L 23.199219 10.808594 L 10 10.675781 Z M 34.332031 14.8125 C 34.535156 15.679688 34.601562 17.078125 34.398438 18.015625 C 34.265625 18.949219 34.066406 20.082031 34.066406 20.550781 C 33.933594 22.351562 32.867188 20.617188 32.464844 18.214844 C 32.265625 16.8125 31.933594 15.144531 31.667969 14.476562 C 31.332031 13.609375 31.535156 13.34375 32.601562 13.34375 C 33.464844 13.34375 34.132812 13.878906 34.332031 14.8125 Z M 34.332031 14.8125 "/>
<path style=" stroke:none;fill-rule:nonzero;fill:rgb(9.803922%,18.039216%,23.921569%);fill-opacity:1;" d="M 45.332031 12.675781 L 45.332031 14.679688 L 54.667969 14.679688 C 63.132812 14.679688 64 14.8125 64 15.8125 C 64 16.480469 64.332031 18.148438 64.734375 19.480469 L 65.398438 22.015625 L 69.132812 22.015625 C 72.398438 22.015625 72.734375 21.882812 72.332031 20.816406 C 71.734375 19.347656 71 17.011719 70.066406 13.476562 L 69.265625 10.675781 L 45.332031 10.675781 Z M 67.199219 14.144531 C 67.667969 14.609375 68 15.679688 68 16.613281 C 68 18.480469 67.332031 17.945312 66.132812 15.144531 C 65.332031 13.277344 65.800781 12.742188 67.199219 14.144531 Z M 67.199219 14.144531 "/>
<path style=" stroke:none;fill-rule:nonzero;fill:rgb(9.803922%,18.039216%,23.921569%);fill-opacity:1;" d="M 10 29.890625 L 10 32.359375 L 20 37.160156 L 30 41.898438 L 30 52.707031 L 10 52.707031 L 10 54.707031 C 10 56.109375 10.332031 56.710938 11.066406 56.710938 C 11.667969 56.710938 17.464844 59.914062 24.066406 63.847656 L 35.933594 70.921875 L 31.265625 73.65625 L 26.535156 76.390625 L 31 76.59375 C 35.535156 76.792969 35.535156 76.792969 42.601562 72.523438 C 66.066406 58.3125 68.867188 56.441406 67.933594 55.84375 C 67.398438 55.574219 63.199219 53.039062 58.535156 50.304688 L 50 45.300781 L 50 30.691406 L 55 30.691406 C 59.535156 30.691406 60 30.558594 60 29.355469 C 60 28.089844 59.535156 28.019531 48 28.019531 C 36.464844 28.019531 36 28.089844 36 29.355469 C 36 30.558594 36.464844 30.691406 41.066406 30.691406 L 46.132812 30.691406 L 45.933594 39.496094 L 45.667969 48.371094 L 52.535156 52.375 C 58.800781 56.042969 60.398438 57.378906 58.667969 57.378906 C 58.265625 57.378906 54.066406 59.777344 49.332031 62.714844 L 40.667969 68.050781 L 31.199219 62.515625 L 21.800781 57.042969 L 29.265625 56.84375 L 36.667969 56.644531 L 36.667969 39.964844 L 28.535156 36.09375 C 24 33.960938 18.132812 31.089844 15.398438 29.757812 C 12.734375 28.421875 10.398438 27.355469 10.265625 27.355469 C 10.132812 27.355469 10 28.488281 10 29.890625 Z M 33.933594 46.367188 C 33.867188 48.636719 34 50.773438 34.199219 51.171875 C 34.800781 52.105469 33 54.308594 32.066406 53.773438 C 31.535156 53.441406 31.535156 52.90625 32.066406 51.90625 C 32.535156 51.039062 32.734375 48.570312 32.535156 45.566406 C 32.265625 41.433594 32.332031 40.832031 33.132812 41.5 C 33.800781 42.03125 34.066406 43.5 33.933594 46.367188 Z M 63.332031 56.375 C 63.332031 56.511719 62.734375 56.976562 62 57.378906 C 60.800781 57.976562 60.667969 57.910156 60.667969 56.375 C 60.667969 54.84375 60.800781 54.773438 62 55.375 C 62.734375 55.777344 63.332031 56.242188 63.332031 56.375 Z M 20.667969 56.710938 C 20.667969 58.246094 19.535156 58.378906 17.867188 57.109375 C 16.132812 55.84375 16.398438 55.375 18.667969 55.375 C 20.199219 55.375 20.667969 55.644531 20.667969 56.710938 Z M 39 70.320312 C 39.800781 71.121094 39.800781 71.320312 38.933594 71.65625 C 37.398438 72.253906 37.332031 72.1875 37.332031 70.722656 C 37.332031 69.121094 37.734375 69.054688 39 70.320312 Z M 39 70.320312 "/>
<path style=" stroke:none;fill-rule:nonzero;fill:rgb(9.803922%,18.039216%,23.921569%);fill-opacity:1;" d="M 74.667969 28.6875 C 74.667969 29.824219 75.132812 30.023438 77.332031 30.023438 C 79.535156 30.023438 80 29.824219 80 28.6875 C 80 27.554688 79.535156 27.355469 77.332031 27.355469 C 75.132812 27.355469 74.667969 27.554688 74.667969 28.6875 Z M 74.667969 28.6875 "/>
<path style=" stroke:none;fill-rule:nonzero;fill:rgb(9.803922%,18.039216%,23.921569%);fill-opacity:1;" d="M 115.601562 29.289062 C 112.933594 30.957031 112.464844 31.691406 112.933594 33.691406 C 113.535156 35.960938 116 37.027344 122.933594 38.230469 C 129.398438 39.363281 130.734375 40.097656 129.601562 41.832031 C 128.132812 44.234375 122.535156 44.433594 116.535156 42.300781 C 114.601562 41.632812 113.535156 41.566406 112.535156 42.097656 C 109.332031 43.832031 117.332031 46.234375 125 45.96875 C 131.601562 45.636719 134.332031 44.167969 134.332031 40.964844 C 134.332031 38.496094 131.535156 36.894531 125.867188 35.960938 C 119.464844 34.960938 117.332031 34.160156 117.332031 32.625 C 117.332031 31.824219 118.066406 31.023438 119.199219 30.625 C 121.199219 29.824219 127.398438 30.289062 129.464844 31.425781 C 130.464844 31.957031 131.066406 31.890625 132.132812 30.957031 C 133.398438 29.757812 133.398438 29.6875 131.199219 28.957031 C 130 28.488281 126.464844 28.089844 123.332031 28.089844 C 118.867188 28.019531 117.199219 28.289062 115.601562 29.289062 Z M 115.601562 29.289062 "/>
<path style=" stroke:none;fill-rule:nonzero;fill:rgb(9.803922%,18.039216%,23.921569%);fill-opacity:1;" d="M 140 30.355469 C 140 32.425781 139.800781 32.691406 138.332031 32.691406 C 137.265625 32.691406 136.667969 33.09375 136.667969 33.691406 C 136.667969 34.292969 137.265625 34.691406 138.332031 34.691406 C 139.933594 34.691406 140 34.828125 140 39.03125 C 140 44.566406 141.332031 46.035156 146.265625 46.035156 C 150.398438 46.035156 151.535156 45.433594 150.464844 43.96875 C 149.933594 43.300781 149.199219 43.03125 148.332031 43.367188 C 145.398438 44.367188 144.667969 43.5 144.667969 38.894531 L 144.667969 34.558594 L 147.132812 34.828125 C 149.132812 34.960938 149.667969 34.761719 149.867188 33.824219 C 150.066406 32.890625 149.601562 32.691406 147.398438 32.691406 C 144.734375 32.691406 144.667969 32.625 144.667969 30.355469 C 144.667969 28.15625 144.535156 28.019531 142.332031 28.019531 C 140.132812 28.019531 140 28.15625 140 30.355469 Z M 143.332031 33.625 C 143.332031 34.160156 143.066406 34.761719 142.734375 35.027344 C 141.933594 35.492188 141.132812 34.226562 141.667969 33.359375 C 142.265625 32.359375 143.332031 32.558594 143.332031 33.625 Z M 143.332031 33.625 "/>
<path style=" stroke:none;fill-rule:nonzero;fill:rgb(9.803922%,18.039216%,23.921569%);fill-opacity:1;" d="M 67.601562 32.957031 C 66.398438 33.492188 65.265625 34.226562 65.066406 34.625 C 64.265625 35.894531 63.132812 35.425781 63.535156 34.027344 C 63.800781 32.890625 63.535156 32.691406 61.800781 32.691406 L 59.667969 32.691406 L 59.535156 46.035156 L 64 46.035156 L 64 42.164062 C 64 40.097656 64.265625 38.027344 64.535156 37.628906 C 65.265625 36.429688 67.734375 35.359375 69.601562 35.359375 C 71 35.359375 71.332031 35.027344 71.332031 33.691406 C 71.332031 31.824219 70.601562 31.691406 67.601562 32.957031 Z M 67.601562 32.957031 "/>
<path style=" stroke:none;fill-rule:nonzero;fill:rgb(9.803922%,18.039216%,23.921569%);fill-opacity:1;" d="M 94.800781 32.691406 C 93.535156 32.957031 92.199219 33.558594 91.800781 33.960938 C 90.800781 34.960938 90 34.894531 90 33.691406 C 90 33.023438 89.332031 32.691406 88 32.691406 L 86 32.691406 L 86 50.707031 L 90.667969 50.707031 L 90.667969 43.367188 L 92.867188 44.699219 C 94.199219 45.566406 96.199219 46.035156 98.199219 46.035156 C 110.398438 46.035156 111.667969 34.09375 99.667969 32.492188 C 98.199219 32.292969 96 32.359375 94.800781 32.691406 Z M 100.933594 35.628906 C 105 37.363281 104.667969 41.296875 100.199219 43.101562 C 97.667969 44.167969 94.734375 43.832031 92.199219 42.230469 C 90.199219 40.898438 89.800781 39.429688 91 37.5625 C 92.867188 34.691406 96.933594 33.960938 100.933594 35.628906 Z M 100.933594 35.628906 "/>
<path style=" stroke:none;fill-rule:nonzero;fill:rgb(9.803922%,18.039216%,23.921569%);fill-opacity:1;" d="M 157.867188 32.824219 C 154.464844 33.558594 154.066406 34.027344 155.601562 35.292969 C 156.332031 35.894531 156.933594 35.894531 157.933594 35.425781 C 159.601562 34.492188 165.667969 34.492188 167.398438 35.359375 C 168.066406 35.761719 168.667969 36.628906 168.667969 37.296875 C 168.667969 38.429688 168.398438 38.496094 165.867188 37.894531 C 160.132812 36.628906 153.332031 38.894531 153.332031 42.097656 C 153.332031 45.367188 162.464844 47.371094 166.867188 45.035156 C 168.535156 44.167969 168.867188 44.167969 169.800781 45.035156 C 171.066406 46.300781 174.667969 46.367188 174.667969 45.101562 C 174.667969 44.632812 174.199219 43.832031 173.667969 43.367188 C 173 42.832031 172.667969 41.363281 172.667969 39.03125 C 172.667969 34.894531 171.667969 33.757812 167.332031 32.757812 C 163.800781 31.957031 162.132812 31.957031 157.867188 32.824219 Z M 166.601562 39.765625 C 170.734375 40.632812 167.535156 44.035156 162.667969 44.035156 C 159.933594 44.035156 157.199219 42.433594 157.734375 41.03125 C 158.332031 39.5625 162.398438 38.964844 166.601562 39.765625 Z M 166.601562 39.765625 "/>
<path style=" stroke:none;fill-rule:nonzero;fill:rgb(9.803922%,18.039216%,23.921569%);fill-opacity:1;" d="M 186.464844 33.625 C 183.535156 35.09375 183.332031 35.09375 183.332031 33.960938 C 183.332031 32.957031 182.867188 32.691406 181.199219 32.691406 L 179 32.691406 L 179 46.035156 L 183.332031 46.035156 L 183.332031 42.097656 C 183.332031 38.628906 183.535156 37.960938 185.066406 36.761719 C 186.066406 35.960938 187.800781 35.359375 189.066406 35.359375 C 191.066406 35.359375 191.332031 35.160156 191.332031 33.691406 C 191.332031 31.625 190.398438 31.625 186.464844 33.625 Z M 186.464844 33.625 "/>
<path style=" stroke:none;fill-rule:nonzero;fill:rgb(9.803922%,18.039216%,23.921569%);fill-opacity:1;" d="M 75.332031 38.296875 C 75.332031 41.363281 75.132812 44.433594 74.933594 45.035156 C 74.535156 45.96875 74.867188 46.101562 76.933594 45.902344 L 79.398438 45.703125 L 79.535156 39.164062 L 79.734375 32.691406 L 75.332031 32.691406 Z M 75.332031 38.296875 "/>
</g>
</svg>
